<svg xmlns="http://www.w3.org/2000/svg" xmlns:xlink="http://www.w3.org/1999/xlink" width="1000" zoomAndPan="magnify" viewBox="0 0 750 749.999995" height="1000" preserveAspectRatio="xMidYMid meet" version="1.0"><defs><clipPath id="75e0aca114"><path d="M 197.726562 166.257812 L 399.125 166.257812 L 399.125 367.65625 L 197.726562 367.65625 Z M 197.726562 166.257812 " clip-rule="nonzero"/></clipPath><clipPath id="1cf952f6eb"><path d="M 229.195312 166.257812 L 367.65625 166.257812 C 385.035156 166.257812 399.125 180.347656 399.125 197.726562 L 399.125 336.1875 C 399.125 353.570312 385.035156 367.65625 367.65625 367.65625 L 229.195312 367.65625 C 211.816406 367.65625 197.726562 353.570312 197.726562 336.1875 L 197.726562 197.726562 C 197.726562 180.347656 211.816406 166.257812 229.195312 166.257812 Z M 229.195312 166.257812 " clip-rule="nonzero"/></clipPath><clipPath id="d7bfec8bf5"><path d="M 197.726562 289.511719 L 399.125 289.511719 L 399.125 490.910156 L 197.726562 490.910156 Z M 197.726562 289.511719 " clip-rule="nonzero"/></clipPath><clipPath id="ee8524b463"><path d="M 229.195312 289.511719 L 367.65625 289.511719 C 385.035156 289.511719 399.125 303.597656 399.125 320.980469 L 399.125 459.441406 C 399.125 476.820312 385.035156 490.910156 367.65625 490.910156 L 229.195312 490.910156 C 211.816406 490.910156 197.726562 476.820312 197.726562 459.441406 L 197.726562 320.980469 C 197.726562 303.597656 211.816406 289.511719 229.195312 289.511719 Z M 229.195312 289.511719 " clip-rule="nonzero"/></clipPath><clipPath id="80bc86bcdc"><path d="M 197.726562 416.433594 L 399.125 416.433594 L 399.125 617.832031 L 197.726562 617.832031 Z M 197.726562 416.433594 " clip-rule="nonzero"/></clipPath><clipPath id="b44d1bee86"><path d="M 229.195312 416.433594 L 367.65625 416.433594 C 385.035156 416.433594 399.125 430.523438 399.125 447.902344 L 399.125 586.363281 C 399.125 603.742188 385.035156 617.832031 367.65625 617.832031 L 229.195312 617.832031 C 211.816406 617.832031 197.726562 603.742188 197.726562 586.363281 L 197.726562 447.902344 C 197.726562 430.523438 211.816406 416.433594 229.195312 416.433594 Z M 229.195312 416.433594 " clip-rule="nonzero"/></clipPath><clipPath id="572eb9961d"><path d="M 306.816406 166.257812 L 508.214844 166.257812 L 508.214844 367.65625 L 306.816406 367.65625 Z M 306.816406 166.257812 " clip-rule="nonzero"/></clipPath><clipPath id="65c3d46183"><path d="M 338.285156 166.257812 L 476.75 166.257812 C 494.128906 166.257812 508.214844 180.347656 508.214844 197.726562 L 508.214844 336.1875 C 508.214844 353.570312 494.128906 367.65625 476.75 367.65625 L 338.285156 367.65625 C 320.90625 367.65625 306.816406 353.570312 306.816406 336.1875 L 306.816406 197.726562 C 306.816406 180.347656 320.90625 166.257812 338.285156 166.257812 Z M 338.285156 166.257812 " clip-rule="nonzero"/></clipPath><clipPath id="c142ed8750"><path d="M 342.484375 289.511719 L 543.882812 289.511719 L 543.882812 490.910156 L 342.484375 490.910156 Z M 342.484375 289.511719 " clip-rule="nonzero"/></clipPath><clipPath id="a406fe3cf5"><path d="M 373.949219 289.511719 L 512.414062 289.511719 C 529.792969 289.511719 543.882812 303.597656 543.882812 320.980469 L 543.882812 459.441406 C 543.882812 476.820312 529.792969 490.910156 512.414062 490.910156 L 373.949219 490.910156 C 356.570312 490.910156 342.484375 476.820312 342.484375 459.441406 L 342.484375 320.980469 C 342.484375 303.597656 356.570312 289.511719 373.949219 289.511719 Z M 373.949219 289.511719 " clip-rule="nonzero"/></clipPath><clipPath id="fbcaf56349"><path d="M 325.699219 416.433594 L 527.097656 416.433594 L 527.097656 617.832031 L 325.699219 617.832031 Z M 325.699219 416.433594 " clip-rule="nonzero"/></clipPath><clipPath id="e82152b6e5"><path d="M 357.167969 416.433594 L 495.628906 416.433594 C 513.007812 416.433594 527.097656 430.523438 527.097656 447.902344 L 527.097656 586.363281 C 527.097656 603.742188 513.007812 617.832031 495.628906 617.832031 L 357.167969 617.832031 C 339.789062 617.832031 325.699219 603.742188 325.699219 586.363281 L 325.699219 447.902344 C 325.699219 430.523438 339.789062 416.433594 357.167969 416.433594 Z M 357.167969 416.433594 " clip-rule="nonzero"/></clipPath><clipPath id="209eefd033"><path d="M 105.417969 215.035156 L 306.816406 215.035156 L 306.816406 416.433594 L 105.417969 416.433594 Z M 105.417969 215.035156 " clip-rule="nonzero"/></clipPath><clipPath id="fa7d8744b7"><path d="M 136.886719 215.035156 L 275.351562 215.035156 C 292.730469 215.035156 306.816406 229.125 306.816406 246.503906 L 306.816406 384.964844 C 306.816406 402.34375 292.730469 416.433594 275.351562 416.433594 L 136.886719 416.433594 C 119.507812 416.433594 105.417969 402.34375 105.417969 384.964844 L 105.417969 246.503906 C 105.417969 229.125 119.507812 215.035156 136.886719 215.035156 Z M 136.886719 215.035156 " clip-rule="nonzero"/></clipPath><clipPath id="0a5524ed16"><path d="M 105.417969 315.734375 L 306.816406 315.734375 L 306.816406 517.132812 L 105.417969 517.132812 Z M 105.417969 315.734375 " clip-rule="nonzero"/></clipPath><clipPath id="b76ee1c5f6"><path d="M 136.886719 315.734375 L 275.351562 315.734375 C 292.730469 315.734375 306.816406 329.824219 306.816406 347.203125 L 306.816406 485.664062 C 306.816406 503.042969 292.730469 517.132812 275.351562 517.132812 L 136.886719 517.132812 C 119.507812 517.132812 105.417969 503.042969 105.417969 485.664062 L 105.417969 347.203125 C 105.417969 329.824219 119.507812 315.734375 136.886719 315.734375 Z M 136.886719 315.734375 " clip-rule="nonzero"/></clipPath><clipPath id="4399252401"><path d="M 443.183594 266.957031 L 644.582031 266.957031 L 644.582031 468.355469 L 443.183594 468.355469 Z M 443.183594 266.957031 " clip-rule="nonzero"/></clipPath><clipPath id="23285eb1b4"><path d="M 474.648438 266.957031 L 613.113281 266.957031 C 630.492188 266.957031 644.582031 281.046875 644.582031 298.425781 L 644.582031 436.886719 C 644.582031 454.269531 630.492188 468.355469 613.113281 468.355469 L 474.648438 468.355469 C 457.269531 468.355469 443.183594 454.269531 443.183594 436.886719 L 443.183594 298.425781 C 443.183594 281.046875 457.269531 266.957031 474.648438 266.957031 Z M 474.648438 266.957031 " clip-rule="nonzero"/></clipPath><clipPath id="8e3bfd8f4c"><path d="M 443.183594 356.644531 L 644.582031 356.644531 L 644.582031 558.042969 L 443.183594 558.042969 Z M 443.183594 356.644531 " clip-rule="nonzero"/></clipPath><clipPath id="d5aac1c4af"><path d="M 474.648438 356.644531 L 613.113281 356.644531 C 630.492188 356.644531 644.582031 370.730469 644.582031 388.113281 L 644.582031 526.574219 C 644.582031 543.953125 630.492188 558.042969 613.113281 558.042969 L 474.648438 558.042969 C 457.269531 558.042969 443.183594 543.953125 443.183594 526.574219 L 443.183594 388.113281 C 443.183594 370.730469 457.269531 356.644531 474.648438 356.644531 Z M 474.648438 356.644531 " clip-rule="nonzero"/></clipPath><clipPath id="296f75dd36"><path d="M 527.097656 132.167969 L 642.484375 132.167969 L 642.484375 247.550781 L 527.097656 247.550781 Z M 527.097656 132.167969 " clip-rule="nonzero"/></clipPath><clipPath id="5da00e5b27"><path d="M 558.566406 132.167969 L 611.015625 132.167969 C 628.394531 132.167969 642.484375 146.257812 642.484375 163.636719 L 642.484375 216.082031 C 642.484375 233.464844 628.394531 247.550781 611.015625 247.550781 L 558.566406 247.550781 C 541.1875 247.550781 527.097656 233.464844 527.097656 216.082031 L 527.097656 163.636719 C 527.097656 146.257812 541.1875 132.167969 558.566406 132.167969 Z M 558.566406 132.167969 " clip-rule="nonzero"/></clipPath></defs><g clip-path="url(#75e0aca114)"><g clip-path="url(#1cf952f6eb)"><path fill="#919191" d="M 197.726562 166.257812 L 399.125 166.257812 L 399.125 367.65625 L 197.726562 367.65625 Z M 197.726562 166.257812 " fill-opacity="1" fill-rule="nonzero"/></g></g><g clip-path="url(#d7bfec8bf5)"><g clip-path="url(#ee8524b463)"><path fill="#919191" d="M 197.726562 289.511719 L 399.125 289.511719 L 399.125 490.910156 L 197.726562 490.910156 Z M 197.726562 289.511719 " fill-opacity="1" fill-rule="nonzero"/></g></g><g clip-path="url(#80bc86bcdc)"><g clip-path="url(#b44d1bee86)"><path fill="#919191" d="M 197.726562 416.433594 L 399.125 416.433594 L 399.125 617.832031 L 197.726562 617.832031 Z M 197.726562 416.433594 " fill-opacity="1" fill-rule="nonzero"/></g></g><g clip-path="url(#572eb9961d)"><g clip-path="url(#65c3d46183)"><path fill="#919191" d="M 306.816406 166.257812 L 508.214844 166.257812 L 508.214844 367.65625 L 306.816406 367.65625 Z M 306.816406 166.257812 " fill-opacity="1" fill-rule="nonzero"/></g></g><g clip-path="url(#c142ed8750)"><g clip-path="url(#a406fe3cf5)"><path fill="#919191" d="M 342.484375 289.511719 L 543.882812 289.511719 L 543.882812 490.910156 L 342.484375 490.910156 Z M 342.484375 289.511719 " fill-opacity="1" fill-rule="nonzero"/></g></g><g clip-path="url(#fbcaf56349)"><g clip-path="url(#e82152b6e5)"><path fill="#919191" d="M 325.699219 416.433594 L 527.097656 416.433594 L 527.097656 617.832031 L 325.699219 617.832031 Z M 325.699219 416.433594 " fill-opacity="1" fill-rule="nonzero"/></g></g><g clip-path="url(#209eefd033)"><g clip-path="url(#fa7d8744b7)"><path fill="#919191" d="M 105.417969 215.035156 L 306.816406 215.035156 L 306.816406 416.433594 L 105.417969 416.433594 Z M 105.417969 215.035156 " fill-opacity="1" fill-rule="nonzero"/></g></g><g clip-path="url(#0a5524ed16)"><g clip-path="url(#b76ee1c5f6)"><path fill="#919191" d="M 105.417969 315.734375 L 306.816406 315.734375 L 306.816406 517.132812 L 105.417969 517.132812 Z M 105.417969 315.734375 " fill-opacity="1" fill-rule="nonzero"/></g></g><g clip-path="url(#4399252401)"><g clip-path="url(#23285eb1b4)"><path fill="#919191" d="M 443.183594 266.957031 L 644.582031 266.957031 L 644.582031 468.355469 L 443.183594 468.355469 Z M 443.183594 266.957031 " fill-opacity="1" fill-rule="nonzero"/></g></g><g clip-path="url(#8e3bfd8f4c)"><g clip-path="url(#d5aac1c4af)"><path fill="#919191" d="M 443.183594 356.644531 L 644.582031 356.644531 L 644.582031 558.042969 L 443.183594 558.042969 Z M 443.183594 356.644531 " fill-opacity="1" fill-rule="nonzero"/></g></g><g clip-path="url(#296f75dd36)"><g clip-path="url(#5da00e5b27)"><path fill="#919191" d="M 527.097656 132.167969 L 642.484375 132.167969 L 642.484375 247.550781 L 527.097656 247.550781 Z M 527.097656 132.167969 " fill-opacity="1" fill-rule="nonzero"/></g></g></svg>